<svg id="Layer_1" data-name="Layer 1" xmlns="http://www.w3.org/2000/svg" width="319" height="86" viewBox="0 0 319 86"><title>Cellapp_Footer</title><path d="M37.576,27.164a14.957,14.957,0,0,1,4.6.731,4.019,4.019,0,0,0,1.238.208h0a3.891,3.891,0,0,0,1.171-7.6,22.436,22.436,0,1,0-.139,42.682,3.485,3.485,0,0,0-1.1-6.792h0a3.59,3.59,0,0,0-1.11.187,14.838,14.838,0,0,1-6.5.636,15.083,15.083,0,0,1,1.843-30.053Z" style="fill:#6d6e70"/><path d="M192.8,41.824a22.438,22.438,0,1,0-7.231,16.494V63a3.616,3.616,0,1,0,7.231,0V45.263a3.539,3.539,0,0,0-.141-.948A22.029,22.029,0,0,0,192.8,41.824ZM170.364,56.907a15.083,15.083,0,1,1,15.083-15.083A15.086,15.086,0,0,1,170.364,56.907Z" style="fill:#3fc0c8"/><path d="M115.761,19.393a3.615,3.615,0,0,0-3.615,3.616V63a3.616,3.616,0,0,0,7.231,0V23.009A3.616,3.616,0,0,0,115.761,19.393Z" style="fill:#6d6e70"/><path d="M133.653,19.393a3.617,3.617,0,0,0-3.617,3.616V63a3.616,3.616,0,0,0,7.232,0V23.009A3.616,3.616,0,0,0,133.653,19.393Z" style="fill:#6d6e70"/><path d="M225.9,19.387a22.435,22.435,0,0,0-22.437,22.437c0,.546.026,1.086.064,1.623a3.855,3.855,0,0,0-.064.639V63a3.616,3.616,0,1,0,7.232,0V58.318A22.434,22.434,0,1,0,225.9,19.387Zm0,37.52a15.083,15.083,0,1,1,15.083-15.083A15.086,15.086,0,0,1,225.9,56.907Z" style="fill:#3fc0c8"/><path d="M281.422,19.387a22.434,22.434,0,0,0-22.433,22.437c0,.546.025,1.086.064,1.623a3.47,3.47,0,0,0-.064.639V63a3.616,3.616,0,1,0,7.231,0V58.318a22.435,22.435,0,1,0,15.2-38.931Zm0,37.52a15.083,15.083,0,1,1,15.086-15.083A15.083,15.083,0,0,1,281.422,56.907Z" style="fill:#3fc0c8"/><path d="M101.187,38.208a22.43,22.43,0,0,0-43.7-2.558,21.6,21.6,0,0,0-.572,2.558,22.21,22.21,0,0,0,0,7.228,22.256,22.256,0,0,0,2.333,6.926,22.417,22.417,0,0,0,37.218,3.577,3.681,3.681,0,0,0-2.835-6.019,3.756,3.756,0,0,0-2.9,1.423,15.04,15.04,0,0,1-21.164,2.2,14.516,14.516,0,0,1-1.289-1.177A14.919,14.919,0,0,1,64.42,38.208,14.744,14.744,0,0,1,65.3,35.65a15.061,15.061,0,0,1,28.373,2.558H77.822a3.662,3.662,0,0,0-3.7,3.577v.074a3.662,3.662,0,0,0,3.7,3.577H97.806a3.647,3.647,0,0,0,3.68-3.58v-.039A21.265,21.265,0,0,0,101.187,38.208Z" style="fill:#6d6e70"/></svg>